<?xml version="1.0" ?><svg height="24px" version="1.1" viewBox="0 0 24 24" width="24px" xmlns="http://www.w3.org/2000/svg" xmlns:xlink="http://www.w3.org/1999/xlink" fill="white"><title/><desc/><g fill="none" fill-rule="evenodd" id="Social-/-8---Social,-fire,-flame,-hot,-trends,-trending-icon" stroke="none" stroke-linecap="round" stroke-linejoin="round" stroke-width="1"><path d="M17.3618965,7.59311408 C18.7821417,9.53217279 19.998627,10.9423529 19.998627,13.81943 C19.998627,18.2964916 16.4632369,21.9443751 12.0973363,21.9987109 C12.0645223,21.9995703 12.0316319,22 11.998627,22 C11.965622,22 11.9327316,21.9995703 11.8999176,21.9987109 C7.53405525,21.9443751 3.99862696,18.2964916 3.99862696,13.81943 C3.99862696,13.1093533 4.08820642,12.4032219 4.26495873,11.7206451 L4.586528,10.4787725 C5.08361849,10.8868636 5.62850524,11.2424242 6.22118825,11.5454545 C6.81387127,11.8484848 7.17431357,11.9316242 7.30251517,11.7948726 C7.43718961,10.2269209 7.5773716,8.92611619 7.72306115,7.89245831 C8.20352008,4.48363329 10.2547463,2.51948052 13.8767397,2 L13.6261464,2.94042785 C13.0355713,5.15667352 13.1534571,6.59866289 13.356262,7.41811442 C13.5736975,8.29666739 14.1357663,9.13694136 14.6669212,9.27272727 C15.8522872,9.57575758 16.5519713,8.74468912 16.7659734,6.77952191 L17.3618965,7.59311408 Z" id="Path" stroke="#000000" stroke-width="2"/><path d="M11.4233427,12.2065449 C9.88420687,13.6565638 9.56773594,15.1663602 10.4739299,16.7359341 C11.1253254,17.8641843 12.6158019,18.2361225 13.8052732,17.5676834 C13.8142791,17.5627733 13.823243,17.5577427 13.8321752,17.5525857 C13.8411074,17.5474287 13.849946,17.542181 13.8587012,17.5368367 C15.0323325,16.8409379 15.4570613,15.366971 14.8040569,14.2359341 C14.5242984,13.7513782 13.3973936,13.0749151 11.4233427,12.2065449 Z" id="Path" stroke="#000000" stroke-width="2"/></g></svg>